# xmcd
#
# Track frame offsets:
#	150
#	15355
#	27287
#	44108
#	56792
#	72580
#	89133
#	107802
#	120743
#	135528
#	152429
#	168054
#	183174
#	195120
#	211973
#	224675
#	240506
#	257084
#	275832
#	288863
#	303705
#	320555
#
# Disc length: 4480 seconds
#
# Revision: 0
# Processed by: cddbd v1.5.1PL0 Copyright (c) Steve Scherf et al.
# Submitted via: EasyCDDAExtractor 8.2.1.1
#
DISCID=48117e16
DTITLE=Kevin Sharp - Make a Wish
DYEAR=2005
DGENRE=Country
TTITLE0=I Am The Workin' Man
TTITLE1=You Are The Reason Why
TTITLE2=Let Me Rock You To Sleep
TTITLE3=I Think I'll Stay
TTITLE4=Make A Wish
TTITLE5=Your Love Reaches Me
TTITLE6=You Showed Me How To Love
TTITLE7=All I Could Say
TTITLE8=What Some People Throw Away
TTITLE9=They Listen To The Music
TTITLE10=Nobody Knows
TTITLE11=I Am The Workin' Man (Instrumental)
TTITLE12=You Are The Reason Why (Instrumental)
TTITLE13=Let Me Rock You To Sleep (Instrumental)
TTITLE14=I Think I'll Stay (Instrumental)
TTITLE15=Make A Wish (Instrumental)
TTITLE16=Your Love Reaches Me (Instrumental)
TTITLE17=You Showed Me How To Love (Instrumental)
TTITLE18=All I Could Say (Instrumental)
TTITLE19=What Some People Throw Away (Instrumental)
TTITLE20=They Listen To The Music (Instrumental)
TTITLE21=Nobody Knows (Instrumental
EXTD=
EXTT0=
EXTT1=
EXTT2=
EXTT3=
EXTT4=
EXTT5=
EXTT6=
EXTT7=
EXTT8=
EXTT9=
EXTT10=
EXTT11=
EXTT12=
EXTT13=
EXTT14=
EXTT15=
EXTT16=
EXTT17=
EXTT18=
EXTT19=
EXTT20=
EXTT21=
PLAYORDER=
